<svg width="14" height="15" viewBox="0 0 14 15" fill="none" xmlns="http://www.w3.org/2000/svg">
<path d="M0.994495 7.98949C0.787936 7.98949 0.614943 7.94559 0.475515 7.85781C0.341252 7.77002 0.240554 7.66157 0.173423 7.53248C0.111455 7.39821 0.0856352 7.25878 0.0959631 7.11419C0.111455 6.96444 0.163095 6.82243 0.250882 6.68817C0.343834 6.5539 0.478097 6.44804 0.653672 6.37058L12.4972 0.863201C12.7296 0.754758 12.9465 0.710864 13.1479 0.73152C13.3545 0.747012 13.5249 0.814144 13.6591 0.932915C13.7934 1.05169 13.8734 1.20919 13.8993 1.40542C13.9251 1.60165 13.8812 1.8237 13.7676 2.07157L8.28345 13.8454C8.19049 14.0417 8.07431 14.1888 7.93488 14.287C7.80061 14.3902 7.65602 14.4496 7.5011 14.4651C7.35135 14.4806 7.20676 14.4548 7.06733 14.3877C6.93307 14.3257 6.82462 14.225 6.742 14.0856C6.65938 13.9461 6.61806 13.7783 6.61806 13.5821L6.60257 8.14441C6.60257 8.05146 6.5561 8.00498 6.46314 8.00498L0.994495 7.98949Z" fill="#F2F1ED"/>
</svg>
