<svg width="11" height="15" viewBox="0 0 11 15" fill="none" xmlns="http://www.w3.org/2000/svg">
<path d="M2.86581 6.96073H8.13279C8.22594 6.96073 8.30491 6.92833 8.36971 6.86353C8.43856 6.79468 8.47299 6.71368 8.47299 6.62053C8.47299 6.52738 8.43856 6.44639 8.36971 6.37754C8.30491 6.30869 8.22594 6.27426 8.13279 6.27426H2.86581C2.77266 6.27426 2.69166 6.30869 2.62281 6.37754C2.55801 6.44639 2.52561 6.52738 2.52561 6.62053C2.52561 6.71368 2.55801 6.79468 2.62281 6.86353C2.69166 6.92833 2.77266 6.96073 2.86581 6.96073ZM2.86581 9.06266H8.13279C8.22594 9.06266 8.30491 9.03026 8.36971 8.96547C8.43856 8.90067 8.47299 8.81967 8.47299 8.72247C8.47299 8.62527 8.43856 8.54427 8.36971 8.47947C8.30491 8.41467 8.22594 8.38227 8.13279 8.38227H2.86581C2.77266 8.38227 2.69166 8.41467 2.62281 8.47947C2.55801 8.54427 2.52561 8.62527 2.52561 8.72247C2.52561 8.81967 2.55801 8.90067 2.62281 8.96547C2.69166 9.03026 2.77266 9.06266 2.86581 9.06266ZM2.86581 11.2922H5.56916C5.65826 11.2922 5.73724 11.2577 5.80608 11.1889C5.87493 11.116 5.90936 11.035 5.90936 10.9459C5.90936 10.8527 5.87493 10.7738 5.80608 10.709C5.74129 10.6442 5.66231 10.6118 5.56916 10.6118H2.86581C2.77266 10.6118 2.69166 10.6442 2.62281 10.709C2.55801 10.7738 2.52561 10.8527 2.52561 10.9459C2.52561 11.035 2.55801 11.116 2.62281 11.1889C2.69166 11.2577 2.77266 11.2922 2.86581 11.2922ZM2.44056 14.4208C1.86547 14.4208 1.43212 14.2729 1.14052 13.9773C0.848924 13.6817 0.703125 13.2422 0.703125 12.659V3.88681C0.703125 3.30361 0.844874 2.86621 1.12837 2.57462C1.41592 2.27897 1.83712 2.13114 2.39196 2.13114H2.58636C2.58636 2.13924 2.58636 2.15139 2.58636 2.16759C2.58636 2.17974 2.58636 2.19189 2.58636 2.20404V2.86621C2.58636 3.21046 2.69166 3.49193 2.90226 3.71063C3.11691 3.92933 3.39433 4.03868 3.73453 4.03868H7.26407C7.60427 4.03868 7.88169 3.92933 8.09634 3.71063C8.31099 3.49193 8.41831 3.21046 8.41831 2.86621V2.20404C8.41831 2.19189 8.41831 2.17974 8.41831 2.16759C8.41831 2.15139 8.41831 2.13924 8.41831 2.13114H8.61271C9.16351 2.13114 9.58066 2.27897 9.86415 2.57462C10.1517 2.86621 10.2955 3.30361 10.2955 3.88681V12.659C10.2955 13.2422 10.1497 13.6817 9.85808 13.9773C9.57053 14.2729 9.13718 14.4208 8.55804 14.4208H2.44056ZM3.73453 3.40081C3.57253 3.40081 3.44495 3.35423 3.3518 3.26109C3.2627 3.16389 3.21816 3.03226 3.21816 2.86621V2.26479C3.21816 2.09874 3.2627 1.96712 3.3518 1.86992C3.44495 1.77272 3.57253 1.72412 3.73453 1.72412H4.28735C4.3076 1.40822 4.43315 1.1389 4.66399 0.916154C4.89889 0.693405 5.17834 0.582031 5.50234 0.582031C5.82633 0.582031 6.10376 0.693405 6.33461 0.916154C6.56545 1.1389 6.68898 1.40822 6.70518 1.72412H7.26407C7.42607 1.72412 7.55162 1.77272 7.64072 1.86992C7.73387 1.96712 7.78044 2.09874 7.78044 2.26479V2.86621C7.78044 3.03226 7.73387 3.16389 7.64072 3.26109C7.55162 3.35423 7.42607 3.40081 7.26407 3.40081H3.73453ZM5.50234 2.27087C5.64004 2.27087 5.75748 2.22227 5.85468 2.12507C5.95593 2.02382 6.00656 1.90435 6.00656 1.76665C6.00656 1.6249 5.95593 1.50542 5.85468 1.40822C5.75748 1.31103 5.64004 1.26243 5.50234 1.26243C5.36059 1.26243 5.23909 1.31103 5.13784 1.40822C5.04064 1.50542 4.99204 1.6249 4.99204 1.76665C4.99204 1.90435 5.04064 2.02382 5.13784 2.12507C5.23909 2.22227 5.36059 2.27087 5.50234 2.27087Z" fill="#F2F1ED"/>
</svg>
