<svg width="13" height="12" viewBox="0 0 13 12" fill="none" xmlns="http://www.w3.org/2000/svg">
<path d="M3.01571 11.1843C2.81524 11.1843 2.68901 11.1193 2.63704 10.9894C2.58878 10.8632 2.61476 10.7351 2.715 10.6051C2.78183 10.516 2.87464 10.401 2.99344 10.2599C3.11224 10.1188 3.23475 9.9666 3.36097 9.80325C3.4872 9.6399 3.59671 9.48027 3.68953 9.32434C3.7118 9.28351 3.71737 9.24452 3.70623 9.2074C3.69509 9.17028 3.66725 9.14058 3.6227 9.1183C3.06954 8.82502 2.59063 8.47047 2.18597 8.05468C1.78131 7.63888 1.46947 7.17853 1.25043 6.67364C1.03139 6.16503 0.921875 5.63229 0.921875 5.07541C0.921875 4.41459 1.07409 3.79832 1.37851 3.2266C1.68665 2.65117 2.11172 2.14441 2.65375 1.70634C3.19577 1.26827 3.82503 0.926721 4.54154 0.681698C5.26176 0.432962 6.0321 0.308594 6.85256 0.308594C7.67673 0.308594 8.44707 0.432962 9.16357 0.681698C9.88379 0.926721 10.5149 1.26827 11.0569 1.70634C11.599 2.14441 12.0222 2.65117 12.3266 3.2266C12.6347 3.79832 12.7888 4.41459 12.7888 5.07541C12.7888 5.59887 12.6923 6.0982 12.4992 6.5734C12.3062 7.04859 12.0277 7.48481 11.6639 7.88205C11.3038 8.27928 10.8676 8.62454 10.3553 8.91783C9.84296 9.21111 9.26752 9.43757 8.62898 9.59721C7.99043 9.75685 7.30177 9.83667 6.56298 9.83667C6.51472 9.83667 6.46646 9.83481 6.4182 9.8311C6.36993 9.8311 6.32167 9.82738 6.27341 9.81996C6.23629 9.81996 6.1973 9.82738 6.15647 9.84223C6.11934 9.85708 6.07851 9.87936 6.03396 9.90906C5.80378 10.065 5.54762 10.2172 5.26547 10.3657C4.98704 10.5179 4.70303 10.6553 4.41346 10.7778C4.1276 10.904 3.8603 11.0024 3.61156 11.0729C3.36654 11.1472 3.16792 11.1843 3.01571 11.1843Z" fill="#F2F1ED"/>
</svg>
